<?xml version="1.0" encoding="UTF-8" standalone="no"?>
<!DOCTYPE svg PUBLIC "-//W3C//DTD SVG 1.1//EN" "http://www.w3.org/Graphics/SVG/1.1/DTD/svg11.dtd">
<svg width="100%" height="100%" viewBox="0 0 2920 2314" version="1.1" xmlns="http://www.w3.org/2000/svg" xmlns:xlink="http://www.w3.org/1999/xlink" xml:space="preserve" xmlns:serif="http://www.serif.com/" style="fill-rule:evenodd;clip-rule:evenodd;stroke-linejoin:round;stroke-miterlimit:2;">
    <g transform="matrix(1,0,0,1,-540.06,-31.1449)">
        <g transform="matrix(1,0,0,1,0,23.252)">
            <g id="Logo" transform="matrix(1.0224,0,0,1.0224,-48.6546,-0.52635)">
                <g id="Sombra">
                    <g transform="matrix(1.66957,0,0,1.66957,-1339.81,-1331.15)">
                        <path d="M2307.75,1253.9C2273.03,1262.33 2212.63,1276.51 2170.38,1286.02C2135.93,1293.78 2101.46,1301.4 2067.09,1309.5C2059.87,1311.2 2054.88,1310.08 2049.23,1304.92C2019.95,1278.19 1990.12,1252.08 1960.71,1225.49C1956.02,1221.25 1951.92,1219.99 1945.56,1221.45C1863.44,1240.37 1692.68,1278.65 1688.91,1279.69C1690.86,1282.2 1832.57,1416.36 1901.78,1481.36C1918.06,1496.64 1918.19,1496.49 1918.19,1518.7C1918.19,1609.66 1918.22,1800.14 1918.22,1805.87C1942.79,1800.84 2032.24,1779.18 2056.24,1773.47C2056.55,1778.99 2057.05,2151.85 2057.54,2157.28C2045.7,2146.95 1791.3,1887.23 1778.75,1873.48C1773.9,1868.17 1769.42,1866.38 1762.21,1868.62C1738.7,1875.94 1714.98,1882.56 1690.09,1890.36C1688.5,1892.89 1687.84,1894.49 1687.84,1896.1C1687.89,1924.93 1688.02,1956.25 1688.13,1985.08C1684.37,1986.49 1586.81,2018.15 1541.65,2032.83C1509.13,2043.4 1440.1,2065.97 1433.75,2068.15C1433.68,2055.43 1433.19,1057.31 1433.38,1052.78C1437.48,1051.93 2279.5,899.932 2307.94,895.902C2307.82,1011.96 2307.68,1128.05 2307.69,1243.17C2307.69,1246.15 2307.56,1250.92 2307.75,1253.9ZM1848.38,1740.62C1795.62,1684.87 1743.34,1628.66 1689.68,1572.36C1689.68,1585.14 1689.94,1795 1689.94,1807.77C1748.33,1792.39 1806.97,1777.01 1867.21,1761.15C1860.42,1753.74 1854.88,1747.7 1848.38,1740.62Z" style="fill:rgb(165,157,132);fill-rule:nonzero;"/>
                        <path d="M2307.75,1253.9C2273.03,1262.33 2212.63,1276.51 2170.38,1286.02C2135.93,1293.78 2101.46,1301.4 2067.09,1309.5C2059.87,1311.2 2054.88,1310.08 2049.23,1304.92C2019.95,1278.19 1990.12,1252.08 1960.71,1225.49C1956.02,1221.25 1951.92,1219.99 1945.56,1221.45C1863.44,1240.37 1692.68,1278.65 1688.91,1279.69C1690.86,1282.2 1832.57,1416.36 1901.78,1481.36C1918.06,1496.64 1918.19,1496.49 1918.19,1518.7C1918.19,1609.66 1918.22,1800.14 1918.22,1805.87C1942.79,1800.84 2032.24,1779.18 2056.24,1773.47C2056.55,1778.99 2057.05,2151.85 2057.54,2157.28C2045.7,2146.95 1791.3,1887.23 1778.75,1873.48C1773.9,1868.17 1769.42,1866.38 1762.21,1868.62C1738.7,1875.94 1714.98,1882.56 1690.09,1890.36C1688.5,1892.89 1687.84,1894.49 1687.84,1896.1C1687.89,1924.93 1688.02,1956.25 1688.13,1985.08C1684.37,1986.49 1586.81,2018.15 1541.65,2032.83C1509.13,2043.4 1440.1,2065.97 1433.75,2068.15C1433.68,2055.43 1433.19,1057.31 1433.38,1052.78C1437.48,1051.93 2279.5,899.932 2307.94,895.902C2307.82,1011.96 2307.68,1128.05 2307.69,1243.17C2307.69,1246.15 2307.56,1250.92 2307.75,1253.9ZM2303.78,1250.88C2268.67,1259.38 2210.54,1273.01 2169.53,1282.24C2135.07,1290 2100.58,1297.63 2066.2,1305.73C2060.4,1307.09 2056.38,1306.21 2051.84,1302.06C2022.55,1275.33 1992.72,1249.21 1963.31,1222.62C1957.55,1217.41 1952.51,1215.88 1944.69,1217.68C1944.69,1217.68 1944.69,1217.68 1944.69,1217.68C1862.52,1236.61 1691.65,1274.92 1687.88,1275.96C1686.63,1276.3 1685.64,1277.25 1685.23,1278.47C1684.83,1279.7 1685.06,1281.06 1685.86,1282.08C1687.81,1284.58 1829.77,1419.05 1899.13,1484.18C1906.69,1491.28 1910.63,1494.69 1912.55,1499.01C1914.47,1503.31 1914.32,1508.43 1914.32,1518.7C1914.32,1609.66 1914.34,1800.14 1914.34,1805.87C1914.34,1807.03 1914.87,1808.13 1915.77,1808.87C1916.67,1809.61 1917.86,1809.9 1919,1809.66C1942.19,1804.92 2023.15,1785.37 2052.43,1778.36C2052.71,1817.9 2053.13,2092.84 2053.55,2148.06C2011.53,2106.54 1793.21,1883.57 1781.61,1870.87C1778.65,1867.63 1775.74,1865.54 1772.53,1864.53C1769.24,1863.49 1765.58,1863.52 1761.06,1864.92C1737.55,1872.24 1713.82,1878.86 1688.93,1886.67C1688.06,1886.94 1687.31,1887.52 1686.82,1888.29C1684.67,1891.7 1683.96,1893.94 1683.97,1896.11C1683.97,1896.11 1683.97,1896.11 1683.97,1896.11C1684.02,1924.01 1684.14,1954.26 1684.25,1982.31C1668.1,1987.7 1582.04,2015.63 1540.46,2029.14C1511.98,2038.4 1455.53,2056.85 1437.61,2062.78C1437.53,1985.45 1437.09,1114.42 1437.24,1056.01C1491.14,1046.19 2234.83,911.965 2304.07,900.444C2303.94,1014.99 2303.81,1129.55 2303.81,1243.17C2303.81,1245.27 2303.76,1248.24 2303.78,1250.88ZM1851.24,1738C1851.23,1737.98 1851.21,1737.97 1851.2,1737.96C1798.43,1682.2 1746.15,1625.99 1692.48,1569.69C1691.39,1568.54 1689.71,1568.18 1688.24,1568.77C1686.77,1569.35 1685.81,1570.78 1685.81,1572.36C1685.81,1585.14 1686.07,1795 1686.07,1807.77C1686.07,1808.97 1686.63,1810.11 1687.58,1810.84C1688.53,1811.57 1689.77,1811.82 1690.93,1811.52C1749.32,1796.14 1807.96,1780.75 1868.19,1764.89C1869.51,1764.55 1870.54,1763.54 1870.93,1762.24C1871.31,1760.94 1870.98,1759.53 1870.07,1758.53C1863.28,1751.12 1857.74,1745.08 1851.24,1738ZM1848.38,1740.62C1795.62,1684.87 1743.34,1628.66 1689.68,1572.36C1689.68,1585.14 1689.94,1795 1689.94,1807.77C1748.33,1792.39 1806.97,1777.01 1867.21,1761.15C1860.42,1753.74 1854.88,1747.7 1848.38,1740.62Z" style="fill:rgb(165,157,132);"/>
                    </g>
                    <g transform="matrix(1.66957,0,0,1.66957,-1339.81,-1331.15)">
                        <path d="M2308.17,1773.45C2307.99,1767.42 2307.55,1720.13 2307.55,1699.64C2405.37,1671.75 2503.42,1643.77 2602.43,1615.53C2602.43,1621.4 2602.73,2004.9 2602.8,2011.15C2600.52,2010.82 2515.55,1941.72 2475.64,1908.58C2438.54,1877.77 2313.71,1777.49 2308.17,1773.45Z" style="fill:rgb(165,157,132);fill-rule:nonzero;"/>
                        <path d="M2308.17,1773.45C2307.99,1767.42 2307.55,1720.13 2307.55,1699.64C2405.37,1671.75 2503.42,1643.77 2602.43,1615.53C2602.43,1621.4 2602.73,2004.9 2602.8,2011.15C2600.52,2010.82 2515.55,1941.72 2475.64,1908.58C2438.54,1877.77 2313.71,1777.49 2308.17,1773.45ZM2598.91,2003.56C2597.68,2002.63 2596.33,2001.6 2594.91,2000.49C2570.74,1981.58 2510.02,1932.09 2478.11,1905.6C2442.71,1876.2 2327.54,1783.64 2312,1771.51L2312,1771.51C2311.81,1761.41 2311.46,1722.7 2311.43,1702.56C2406.69,1675.4 2502.18,1648.15 2598.56,1620.66C2598.59,1663.11 2598.82,1952.41 2598.91,2003.56Z" style="fill:rgb(165,157,132);"/>
                    </g>
                    <g transform="matrix(1.66957,0,0,1.66957,-1339.81,-1331.15)">
                        <path d="M1280.04,1495.96C1281.4,1499.13 1279.8,1645.51 1279.65,1646.92C1251.67,1623.8 1191.59,1570.14 1148.81,1532.49C1154.73,1530.86 1278.02,1496.59 1280.04,1495.96Z" style="fill:rgb(165,157,132);fill-rule:nonzero;"/>
                        <path d="M1280.04,1495.96C1281.4,1499.13 1279.8,1645.51 1279.65,1646.92C1251.67,1623.8 1191.59,1570.14 1148.81,1532.49C1154.73,1530.86 1278.02,1496.59 1280.04,1495.96ZM1276.43,1501C1276.53,1503.96 1276.63,1508.2 1276.66,1512.77C1276.9,1545.21 1276.23,1615.39 1275.93,1638.76C1247.32,1614.67 1195.99,1568.91 1156.74,1534.31C1180.47,1527.72 1256.55,1506.57 1276.43,1501Z" style="fill:rgb(165,157,132);"/>
                    </g>
                </g>
                <g id="Claro">
                    <g transform="matrix(1.66957,0,0,1.66957,-1339.81,-1331.15)">
                        <path d="M1848.87,1741.14C1854.88,1747.7 1860.42,1753.74 1867.21,1761.15C1806.97,1777.01 1748.33,1792.49 1689.94,1807.86C1689.94,1795.09 1689.68,1588.1 1689.68,1572.36C1743.34,1628.66 1795.62,1684.87 1848.87,1741.14Z" style="fill:rgb(193,186,161);fill-rule:nonzero;"/>
                    </g>
                    <g transform="matrix(1.66957,0,0,1.66957,-1339.81,-1331.15)">
                        <path d="M2307.94,895.902C2279.4,900.869 1437.84,1052.23 1433.74,1053.08C1433.54,1057.6 1434.54,2068.13 1433.75,2068.15C1419.68,2054.95 1190.73,1835.19 1158.78,1805.54C1150.92,1798.26 1147.3,1790.89 1147.38,1779.77C1147.93,1699.79 1148.08,1613.46 1148.81,1532.49C1151.65,1534.77 1278.95,1647.21 1279.64,1646.92C1279.8,1645.51 1280.33,970.212 1280.33,965.158C1283.24,964.156 2072.66,814.673 2133.35,803.01C2139.41,801.844 2144.76,801.645 2150.51,804.922C2201.65,834.1 2307.94,895.902 2307.94,895.902Z" style="fill:rgb(193,186,161);fill-rule:nonzero;"/>
                    </g>
                    <g transform="matrix(1.66957,0,0,1.66957,-1339.81,-1331.15)">
                        <path d="M2067.09,1309.5C2101.46,1301.4 2518.39,1204.69 2591.93,1187.79C2616.55,1182.13 2641.16,1176.42 2665.76,1170.67C2671.72,1169.27 2676.95,1169.2 2682.75,1172.77C2738.57,1207.14 2794.6,1241.16 2850.56,1275.31C2853.1,1276.86 2855.5,1278.63 2857.94,1280.29L2857.94,1924.94C2848.18,1928.56 2608.17,2011.2 2602.8,2011.15C2602.2,2005.15 2602.05,1621.79 2602.05,1615.92C2503.03,1644.15 2405.57,1671.95 2307.75,1699.84C2307.75,1720.34 2311.14,2053.57 2310.89,2063.66C2310.84,2065.76 2066.15,2154.43 2057.54,2157.28C2056.74,2148.47 2056.41,1779.12 2056.1,1773.59C2032.1,1779.31 1942.08,1801.55 1918.19,1805.89C1918.19,1800.16 1918.19,1609.66 1918.19,1518.7C1918.19,1496.49 1918.06,1496.64 1901.78,1481.36C1836.84,1420.37 1690.86,1282.2 1688.91,1279.69C1692.68,1278.65 1863.44,1240.37 1945.56,1221.45C1951.92,1219.99 1956.02,1221.25 1960.71,1225.49C1990.12,1252.08 2019.95,1278.19 2049.23,1304.92C2054.88,1310.08 2059.87,1311.2 2067.09,1309.5Z" style="fill:rgb(193,186,161);fill-rule:nonzero;"/>
                    </g>
                </g>
            </g>
        </g>
    </g>
</svg>
