<?xml version="1.0" encoding="UTF-8" standalone="no"?>
<!DOCTYPE svg PUBLIC "-//W3C//DTD SVG 1.1//EN" "http://www.w3.org/Graphics/SVG/1.1/DTD/svg11.dtd">
<svg width="100%" height="100%" viewBox="0 0 572 453" version="1.1" xmlns="http://www.w3.org/2000/svg" xmlns:xlink="http://www.w3.org/1999/xlink" xml:space="preserve" xmlns:serif="http://www.serif.com/" style="fill-rule:evenodd;clip-rule:evenodd;stroke-linejoin:round;stroke-miterlimit:2;">
    <g transform="matrix(1,0,0,1,-1415.46,-2453.96)">
        <g transform="matrix(0.668311,0,0,0.668311,1334.17,640.458)">
            <g id="Completo" transform="matrix(0.292853,0,0,0.292853,-909.187,2706.68)">
                <g id="Logo" transform="matrix(1.0224,0,0,1.0224,2931.23,15.07)">
                    <g id="Sombra">
                        <g transform="matrix(1.66957,0,0,1.66957,-1339.81,-1331.15)">
                            <path d="M2307.75,1253.9C2273.03,1262.33 2212.63,1276.51 2170.38,1286.02C2135.93,1293.78 2101.46,1301.4 2067.09,1309.5C2059.87,1311.2 2054.88,1310.08 2049.23,1304.92C2019.95,1278.19 1990.12,1252.08 1960.71,1225.49C1956.02,1221.25 1951.92,1219.99 1945.56,1221.45C1863.44,1240.37 1692.68,1278.65 1688.91,1279.69C1690.86,1282.2 1832.57,1416.36 1901.78,1481.36C1918.06,1496.64 1918.19,1496.49 1918.19,1518.7C1918.19,1609.66 1918.22,1800.14 1918.22,1805.87C1942.79,1800.84 2032.24,1779.18 2056.24,1773.47C2056.55,1778.99 2057.05,2151.85 2057.54,2157.28C2045.7,2146.95 1791.3,1887.23 1778.75,1873.48C1773.9,1868.17 1769.42,1866.38 1762.21,1868.62C1738.7,1875.94 1714.98,1882.56 1690.09,1890.36C1688.5,1892.89 1687.84,1894.49 1687.84,1896.1C1687.89,1924.93 1688.02,1956.25 1688.13,1985.08C1684.37,1986.49 1586.81,2018.15 1541.65,2032.83C1509.13,2043.4 1440.1,2065.97 1433.75,2068.15C1433.68,2055.43 1433.19,1057.31 1433.38,1052.78C1437.48,1051.93 2279.5,899.932 2307.94,895.902C2307.82,1011.96 2307.68,1128.05 2307.69,1243.17C2307.69,1246.15 2307.56,1250.92 2307.75,1253.9ZM1848.38,1740.62C1795.62,1684.87 1743.34,1628.66 1689.68,1572.36C1689.68,1585.14 1689.94,1795 1689.94,1807.77C1748.33,1792.39 1806.97,1777.01 1867.21,1761.15C1860.42,1753.74 1854.88,1747.7 1848.38,1740.62Z" style="fill-rule:nonzero;"/>
                        </g>
                        <g transform="matrix(1.66957,0,0,1.66957,-1339.81,-1331.15)">
                            <path d="M2308.17,1773.45C2307.99,1767.42 2307.55,1720.13 2307.55,1699.64C2405.37,1671.75 2503.42,1643.77 2602.43,1615.53C2602.43,1621.4 2602.73,2004.9 2602.8,2011.15C2600.52,2010.82 2515.55,1941.72 2475.64,1908.58C2438.54,1877.77 2313.71,1777.49 2308.17,1773.45Z" style="fill-rule:nonzero;"/>
                        </g>
                        <g transform="matrix(1.66957,0,0,1.66957,-1339.81,-1331.15)">
                            <path d="M1280.04,1495.96C1281.4,1499.13 1279.8,1645.51 1279.65,1646.92C1251.67,1623.8 1191.59,1570.14 1148.81,1532.49C1154.73,1530.86 1278.02,1496.59 1280.04,1495.96Z" style="fill-rule:nonzero;"/>
                        </g>
                    </g>
                    <g id="Claro">
                        <g transform="matrix(1.66957,0,0,1.66957,-1339.81,-1331.15)">
                            <path d="M1848.87,1741.14C1854.88,1747.7 1860.42,1753.74 1867.21,1761.15C1806.97,1777.01 1748.33,1792.49 1689.94,1807.86C1689.94,1795.09 1689.68,1588.1 1689.68,1572.36C1743.34,1628.66 1795.62,1684.87 1848.87,1741.14Z" style="fill:white;fill-rule:nonzero;"/>
                        </g>
                        <g transform="matrix(1.66957,0,0,1.66957,-1339.81,-1331.15)">
                            <path d="M2307.94,895.902C2279.4,900.869 1437.84,1052.23 1433.74,1053.08C1433.54,1057.6 1434.54,2068.13 1433.75,2068.15C1419.68,2054.95 1190.73,1835.19 1158.78,1805.54C1150.92,1798.26 1147.3,1790.89 1147.38,1779.77C1147.93,1699.79 1148.08,1613.46 1148.81,1532.49C1151.65,1534.77 1278.95,1647.21 1279.64,1646.92C1279.8,1645.51 1280.33,970.212 1280.33,965.158C1283.24,964.156 2072.66,814.673 2133.35,803.01C2139.41,801.844 2144.76,801.645 2150.51,804.922C2201.65,834.1 2307.94,895.902 2307.94,895.902Z" style="fill:white;fill-rule:nonzero;"/>
                        </g>
                        <g transform="matrix(1.66957,0,0,1.66957,-1339.81,-1331.15)">
                            <path d="M2067.09,1309.5C2101.46,1301.4 2518.39,1204.69 2591.93,1187.79C2616.55,1182.13 2641.16,1176.42 2665.76,1170.67C2671.72,1169.27 2676.95,1169.2 2682.75,1172.77C2738.57,1207.14 2794.6,1241.16 2850.56,1275.31C2853.1,1276.86 2855.5,1278.63 2857.94,1280.29L2857.94,1924.94C2848.18,1928.56 2608.17,2011.2 2602.8,2011.15C2602.2,2005.15 2602.05,1621.79 2602.05,1615.92C2503.03,1644.15 2405.57,1671.95 2307.75,1699.84C2307.75,1720.34 2311.14,2053.57 2310.89,2063.66C2310.84,2065.76 2066.15,2154.43 2057.54,2157.28C2056.74,2148.47 2056.41,1779.12 2056.1,1773.59C2032.1,1779.31 1942.08,1801.55 1918.19,1805.89C1918.19,1800.16 1918.19,1609.66 1918.19,1518.7C1918.19,1496.49 1918.06,1496.64 1901.78,1481.36C1836.84,1420.37 1690.86,1282.2 1688.91,1279.69C1692.68,1278.65 1863.44,1240.37 1945.56,1221.45C1951.92,1219.99 1956.02,1221.25 1960.71,1225.49C1990.12,1252.08 2019.95,1278.19 2049.23,1304.92C2054.88,1310.08 2059.87,1311.2 2067.09,1309.5Z" style="fill:white;fill-rule:nonzero;"/>
                        </g>
                    </g>
                </g>
                <g id="Logo1" serif:id="Logo">
                </g>
            </g>
        </g>
    </g>
</svg>
