<?xml version="1.0" encoding="UTF-8" standalone="no"?>
<!DOCTYPE svg PUBLIC "-//W3C//DTD SVG 1.1//EN" "http://www.w3.org/Graphics/SVG/1.1/DTD/svg11.dtd">
<svg width="100%" height="100%" viewBox="0 0 1158 453" version="1.1" xmlns="http://www.w3.org/2000/svg" xmlns:xlink="http://www.w3.org/1999/xlink" xml:space="preserve" xmlns:serif="http://www.serif.com/" style="fill-rule:evenodd;clip-rule:evenodd;stroke-linejoin:round;stroke-miterlimit:2;">
    <g transform="matrix(1,0,0,1,-2732.44,-1429.38)">
        <g transform="matrix(0.668311,0,0,0.668311,2651.15,640.458)">
            <g id="Completo" transform="matrix(0.292853,0,0,0.292853,-21.6726,1173.59)">
                <g transform="matrix(0.854296,0,0,1,3206.66,-2017.39)">
                    <g transform="matrix(947.558,0,0,947.558,275.24,3101.8)">
                        <path d="M0.646,-0.696L0.646,-0.659L0.167,-0.659L0.167,-0.436L0.551,-0.436L0.551,-0.26L0.167,-0.26L0.167,-0L0.13,-0L0.13,-0.696L0.646,-0.696Z" style="fill-rule:nonzero;"/>
                    </g>
                    <g transform="matrix(947.558,0,0,947.558,976.433,3101.8)">
                        <path d="M0.08,-0.425C0.08,-0.477 0.093,-0.525 0.119,-0.57C0.145,-0.615 0.18,-0.65 0.225,-0.676C0.269,-0.702 0.317,-0.715 0.37,-0.715C0.423,-0.715 0.471,-0.702 0.516,-0.676C0.56,-0.65 0.595,-0.615 0.621,-0.57C0.647,-0.525 0.66,-0.477 0.66,-0.425L0.66,-0.271C0.66,-0.219 0.647,-0.171 0.621,-0.126C0.595,-0.081 0.56,-0.046 0.516,-0.02C0.471,0.006 0.423,0.019 0.37,0.019C0.317,0.019 0.269,0.006 0.225,-0.02C0.18,-0.046 0.145,-0.081 0.119,-0.126C0.093,-0.171 0.08,-0.219 0.08,-0.271L0.08,-0.425ZM0.262,-0.271C0.262,-0.239 0.272,-0.212 0.292,-0.189C0.312,-0.166 0.338,-0.155 0.37,-0.155C0.401,-0.155 0.427,-0.166 0.447,-0.189C0.467,-0.212 0.477,-0.239 0.477,-0.271L0.477,-0.426C0.477,-0.459 0.467,-0.486 0.447,-0.508C0.427,-0.53 0.401,-0.541 0.37,-0.541C0.338,-0.541 0.312,-0.53 0.292,-0.508C0.272,-0.486 0.262,-0.459 0.262,-0.426L0.262,-0.271Z" style="fill-rule:nonzero;"/>
                    </g>
                    <g transform="matrix(947.558,0,0,947.558,1677.63,3101.8)">
                        <path d="M0.658,-0L0.123,-0L0.123,-0.696L0.394,-0.696C0.452,-0.696 0.499,-0.686 0.536,-0.665C0.572,-0.645 0.6,-0.618 0.62,-0.583C0.64,-0.548 0.65,-0.51 0.65,-0.468C0.65,-0.416 0.634,-0.37 0.602,-0.329C0.57,-0.288 0.53,-0.26 0.481,-0.247L0.658,-0ZM0.186,-0.659L0.458,-0.279C0.503,-0.288 0.54,-0.311 0.569,-0.346C0.598,-0.381 0.613,-0.422 0.613,-0.468C0.613,-0.505 0.604,-0.538 0.586,-0.568C0.568,-0.598 0.543,-0.621 0.51,-0.637C0.481,-0.652 0.442,-0.659 0.395,-0.659L0.186,-0.659ZM0.16,-0.635L0.16,-0.276L0.417,-0.276L0.16,-0.635ZM0.16,-0.037L0.588,-0.037L0.442,-0.24L0.411,-0.239L0.16,-0.239L0.16,-0.037Z" style="fill-rule:nonzero;"/>
                    </g>
                    <g transform="matrix(947.558,0,0,947.558,2378.82,3101.8)">
                        <path d="M0.089,-0.697L0.129,-0.697L0.372,-0.267L0.614,-0.697L0.651,-0.697L0.651,-0.001L0.089,-0.001L0.089,-0.697ZM0.126,-0.037L0.614,-0.037L0.614,-0.622L0.389,-0.226L0.354,-0.226L0.126,-0.628L0.126,-0.037Z" style="fill-rule:nonzero;"/>
                    </g>
                    <g transform="matrix(947.558,0,0,947.558,3080.01,3101.8)">
                        <path d="M0.698,-0L0.042,-0L0.37,-0.711L0.698,-0ZM0.1,-0.037L0.64,-0.037L0.37,-0.623L0.1,-0.037Z" style="fill-rule:nonzero;"/>
                    </g>
                </g>
                <g transform="matrix(1,0,0,1,-409.401,187.797)">
                    <g id="Forma-Curva" serif:id="Forma Curva" transform="matrix(0.854296,0,0,1,3616.06,-2205.19)">
                        <path d="M887.363,2442.3L887.363,2477.36L433.483,2477.36L433.483,2688.66L797.345,2688.66L797.345,2855.43L433.483,2855.43L433.483,3101.8L398.423,3101.8L398.423,2442.3L887.363,2442.3Z" style="fill-rule:nonzero;"/>
                        <path d="M1052.24,2699.09C1052.24,2649.81 1064.56,2604.02 1089.19,2561.69C1113.83,2519.37 1147.15,2485.89 1189.16,2461.25C1231.17,2436.61 1277.12,2424.3 1327.03,2424.3C1376.93,2424.3 1422.89,2436.61 1464.9,2461.25C1506.91,2485.89 1540.23,2519.37 1564.87,2561.69C1589.5,2604.02 1601.82,2649.81 1601.82,2699.09L1601.82,2845.01C1601.82,2894.28 1589.5,2940.08 1564.87,2982.41C1540.23,3024.73 1506.91,3058.21 1464.9,3082.85C1422.89,3107.49 1376.93,3119.8 1327.03,3119.8C1277.12,3119.8 1231.17,3107.49 1189.16,3082.85C1147.15,3058.21 1113.83,3024.73 1089.19,2982.41C1064.56,2940.08 1052.24,2894.28 1052.24,2845.01L1052.24,2699.09ZM1224.69,2845.01C1224.69,2875.33 1234.17,2901.23 1253.12,2922.71C1272.07,2944.19 1296.71,2954.93 1327.03,2954.93C1356.72,2954.93 1381.04,2944.19 1399.99,2922.71C1418.94,2901.23 1428.42,2875.33 1428.42,2845.01L1428.42,2698.14C1428.42,2667.19 1418.94,2641.29 1399.99,2620.44C1381.04,2599.59 1356.72,2589.17 1327.03,2589.17C1296.71,2589.17 1272.07,2599.59 1253.12,2620.44C1234.17,2641.29 1224.69,2667.19 1224.69,2698.14L1224.69,2845.01Z" style="fill-rule:nonzero;"/>
                        <path d="M2301.12,3101.8L1794.18,3101.8L1794.18,2442.3L2050.96,2442.3C2105.92,2442.3 2150.77,2452.09 2185.52,2471.67C2219.63,2490.62 2246.16,2516.53 2265.11,2549.37C2284.06,2582.22 2293.54,2618.55 2293.54,2658.34C2293.54,2707.62 2278.38,2751.68 2248.06,2790.53C2217.74,2829.38 2179.52,2855.12 2133.4,2867.75L2301.12,3101.8ZM1853.87,2477.36L2111.61,2837.43C2153.93,2828.59 2188.99,2807.43 2216.79,2773.95C2244.58,2740.46 2258.48,2701.93 2258.48,2658.34C2258.48,2623.6 2249.95,2592.01 2232.9,2563.59C2215.84,2535.16 2191.84,2513.37 2160.88,2498.2C2133.09,2484.31 2096.76,2477.36 2051.91,2477.36L1853.87,2477.36ZM1829.24,2500.1L1829.24,2840.27L2072.76,2840.27L1829.24,2500.1ZM1829.24,3066.74L2234.79,3066.74L2096.45,2874.39L2067.07,2875.33L1829.24,2875.33L1829.24,3066.74Z" style="fill-rule:nonzero;"/>
                        <path d="M2463.15,2441.35L2501.05,2441.35L2731.31,2848.8L2960.62,2441.35L2995.68,2441.35L2995.68,3100.85L2463.15,3100.85L2463.15,2441.35ZM2498.21,3066.74L2960.62,3066.74L2960.62,2512.42L2747.42,2887.65L2714.26,2887.65L2498.21,2506.73L2498.21,3066.74Z" style="fill-rule:nonzero;"/>
                        <path d="M3741.41,3101.8L3119.81,3101.8L3430.61,2428.09L3741.41,3101.8ZM3174.77,3066.74L3686.45,3066.74L3430.61,2511.47L3174.77,3066.74Z" style="fill-rule:nonzero;"/>
                    </g>
                    <g id="Libre-Curva" serif:id="Libre Curva" transform="matrix(0.99455,0,0,1.00376,3370.77,-2222.65)">
                        <path d="M1008.68,3923.27C1025.99,3923.27 1034.64,3931.32 1034.64,3947.42C1034.64,3953.87 1031.13,3959.59 1024.11,3964.6C1017.09,3969.61 1004.6,3972.12 986.638,3972.12L588.873,3972.12L588.873,3212.59L838.701,3212.59L838.701,3936.69L930.304,3936.69C950.878,3936.69 968.595,3934.45 983.454,3929.98C998.313,3925.51 1006.72,3923.27 1008.68,3923.27Z" style="fill-rule:nonzero;"/>
                        <rect x="1119.88" y="3212.59" width="249.828" height="759.531" style="fill-rule:nonzero;"/>
                        <path d="M1534.3,3212.59L1744.69,3212.59C1796.78,3212.59 1828.38,3212.76 1839.48,3213.12C1887.81,3215.63 1921.94,3221.8 1941.86,3231.64C1961.78,3241.48 1977.62,3252.49 1989.38,3264.65C2014.53,3291.85 2027.1,3324.77 2027.1,3363.42C2027.1,3401.71 2014.85,3435.35 1990.36,3464.33C1982.85,3473.28 1974.19,3480.97 1964.4,3487.41C2017.63,3498.15 2061.22,3522.66 2095.19,3560.95C2132.09,3602.46 2150.54,3653.1 2150.54,3712.86C2150.54,3773.69 2133.4,3826.11 2099.11,3870.13C2051.1,3930.96 1976.97,3964.24 1876.71,3969.97C1851.24,3971.4 1826.09,3972.12 1801.27,3972.12L1534.3,3972.12L1534.3,3212.59ZM1855.65,3476.68L1880.63,3479.9L1888.47,3479.9C1914.27,3479.9 1936.64,3469.52 1955.58,3448.76C1975.83,3426.58 1985.95,3399.38 1985.95,3367.18C1985.95,3327.81 1970.44,3297.57 1939.41,3276.46C1923.74,3265.72 1908.14,3259.37 1892.63,3257.41C1877.12,3255.44 1864.95,3254.1 1856.14,3253.38C1837.85,3251.95 1813.85,3251.23 1784.13,3251.23L1784.13,3932.39L1838.5,3932.39C1894.02,3932.39 1939.25,3924.88 1974.19,3909.85C2015.99,3894.11 2049.14,3868.7 2073.63,3833.63C2096.82,3800.35 2108.41,3765.46 2108.41,3728.96C2108.41,3692.46 2103.51,3661.68 2093.72,3636.63C2083.92,3611.59 2069.72,3590.29 2051.1,3572.76C2013.22,3536.62 1960.48,3518.54 1892.88,3518.54L1859.08,3521.76C1848.63,3521.76 1840.95,3519.44 1836.05,3514.79C1831.15,3510.14 1828.7,3504.77 1828.7,3498.68C1828.7,3484.01 1837.69,3476.68 1855.65,3476.68Z" style="fill-rule:nonzero;"/>
                        <path d="M2600.72,3711.78L2640.89,3715C2698.37,3715 2747.19,3692.99 2787.36,3648.98C2827.53,3604.96 2847.61,3550.21 2847.61,3484.73C2847.61,3398.84 2813.16,3335.15 2744.25,3293.64C2706.37,3270.74 2665.87,3257.49 2622.76,3253.92C2604.48,3252.13 2587.5,3251.23 2571.82,3251.23L2538.51,3251.23C2531.65,3251.23 2525.61,3251.41 2520.39,3251.77L2520.39,3972.12L2270.56,3972.12L2270.56,3212.59L2456.21,3212.59C2503.57,3212.59 2534.43,3212.76 2548.8,3213.12C2563.17,3213.48 2575.98,3213.93 2587.25,3214.46C2598.52,3215 2609.05,3215.63 2618.85,3216.34C2633.22,3217.77 2653.55,3221.17 2679.83,3226.54C2706.12,3231.91 2732.17,3242.11 2757.97,3257.14C2783.77,3272.17 2805.97,3290.78 2824.59,3312.96C2864.76,3360.2 2884.84,3416.38 2884.84,3481.51C2884.84,3545.92 2866.22,3602.82 2829,3652.2C2790.79,3702.66 2739.84,3735.22 2676.16,3749.89C2706.53,3852.95 2745.23,3914.5 2792.26,3934.54C2806.63,3940.62 2820.99,3943.67 2835.36,3943.67L2874.06,3933.47C2886.15,3933.47 2892.19,3940.27 2892.19,3953.87C2892.19,3972.83 2871.94,3982.32 2831.45,3982.32C2802.05,3982.32 2775.11,3973.37 2750.62,3955.48C2712.41,3930.43 2679.92,3881.76 2653.14,3809.47L2638.93,3771.36C2636.64,3765.28 2634.6,3761.52 2632.81,3760.09C2631.01,3758.66 2627.91,3757.94 2623.5,3757.94C2619.09,3757.94 2615.25,3758.3 2611.99,3759.02L2600.23,3759.56C2587.17,3759.56 2578.27,3756.87 2573.53,3751.5C2568.8,3746.14 2566.43,3740.59 2566.43,3734.86C2566.43,3719.48 2577.86,3711.78 2600.72,3711.78Z" style="fill-rule:nonzero;"/>
                        <path d="M3435.44,3925.95C3452.1,3925.95 3460.42,3933.11 3460.42,3947.42C3460.42,3953.87 3456.83,3959.59 3449.65,3964.6C3442.46,3969.61 3430.05,3972.12 3412.42,3972.12L2997.51,3972.12L2997.51,3212.59L3383.52,3212.59L3423.68,3210.97C3448.18,3210.97 3460.42,3218.85 3460.42,3234.59C3460.42,3240.68 3458.38,3246.31 3454.3,3251.5C3450.22,3256.69 3445.56,3259.28 3440.34,3259.28C3431.85,3259.28 3422.87,3258.21 3413.4,3256.06C3399.35,3252.84 3380.09,3251.23 3355.59,3251.23L3247.34,3251.23L3247.34,3414.95L3336.49,3414.95C3336.49,3414.95 3356.57,3414.05 3396.74,3412.26C3403.93,3412.26 3410.05,3414.14 3415.11,3417.9C3420.17,3421.66 3422.7,3426.93 3422.7,3433.74C3422.7,3448.76 3413.56,3456.28 3395.27,3456.28L3374.21,3455.74C3363.43,3454.67 3354.45,3454.13 3347.27,3454.13L3247.34,3454.13L3247.34,3932.93L3355.59,3932.93C3379.76,3932.93 3396.91,3931.86 3407.03,3929.71C3419.11,3927.21 3428.58,3925.95 3435.44,3925.95Z" style="fill-rule:nonzero;"/>
                    </g>
                </g>
                <g id="Logo" transform="matrix(1.0224,0,0,1.0224,-99.3421,15.07)">
                    <g id="Sombra">
                        <g transform="matrix(1.66957,0,0,1.66957,-1339.81,-1331.15)">
                            <path d="M2307.75,1253.9C2273.03,1262.33 2212.63,1276.51 2170.38,1286.02C2135.93,1293.78 2101.46,1301.4 2067.09,1309.5C2059.87,1311.2 2054.88,1310.08 2049.23,1304.92C2019.95,1278.19 1990.12,1252.08 1960.71,1225.49C1956.02,1221.25 1951.92,1219.99 1945.56,1221.45C1863.44,1240.37 1692.68,1278.65 1688.91,1279.69C1690.86,1282.2 1832.57,1416.36 1901.78,1481.36C1918.06,1496.64 1918.19,1496.49 1918.19,1518.7C1918.19,1609.66 1918.22,1800.14 1918.22,1805.87C1942.79,1800.84 2032.24,1779.18 2056.24,1773.47C2056.55,1778.99 2057.05,2151.85 2057.54,2157.28C2045.7,2146.95 1791.3,1887.23 1778.75,1873.48C1773.9,1868.17 1769.42,1866.38 1762.21,1868.62C1738.7,1875.94 1714.98,1882.56 1690.09,1890.36C1688.5,1892.89 1687.84,1894.49 1687.84,1896.1C1687.89,1924.93 1688.02,1956.25 1688.13,1985.08C1684.37,1986.49 1586.81,2018.15 1541.65,2032.83C1509.13,2043.4 1440.1,2065.97 1433.75,2068.15C1433.68,2055.43 1433.19,1057.31 1433.38,1052.78C1437.48,1051.93 2279.5,899.932 2307.94,895.902C2307.82,1011.96 2307.68,1128.05 2307.69,1243.17C2307.69,1246.15 2307.56,1250.92 2307.75,1253.9ZM1848.38,1740.62C1795.62,1684.87 1743.34,1628.66 1689.68,1572.36C1689.68,1585.14 1689.94,1795 1689.94,1807.77C1748.33,1792.39 1806.97,1777.01 1867.21,1761.15C1860.42,1753.74 1854.88,1747.7 1848.38,1740.62Z" style="fill:none;fill-rule:nonzero;"/>
                        </g>
                        <g transform="matrix(1.66957,0,0,1.66957,-1339.81,-1331.15)">
                            <path d="M2308.17,1773.45C2307.99,1767.42 2307.55,1720.13 2307.55,1699.64C2405.37,1671.75 2503.42,1643.77 2602.43,1615.53C2602.43,1621.4 2602.73,2004.9 2602.8,2011.15C2600.52,2010.82 2515.55,1941.72 2475.64,1908.58C2438.54,1877.77 2313.71,1777.49 2308.17,1773.45Z" style="fill:none;fill-rule:nonzero;"/>
                        </g>
                        <g transform="matrix(1.66957,0,0,1.66957,-1339.81,-1331.15)">
                            <path d="M1280.04,1495.96C1281.4,1499.13 1279.8,1645.51 1279.65,1646.92C1251.67,1623.8 1191.59,1570.14 1148.81,1532.49C1154.73,1530.86 1278.02,1496.59 1280.04,1495.96Z" style="fill:none;fill-rule:nonzero;"/>
                        </g>
                    </g>
                    <g id="Claro">
                        <g transform="matrix(1.66957,0,0,1.66957,-1339.81,-1331.15)">
                            <path d="M1848.87,1741.14C1854.88,1747.7 1860.42,1753.74 1867.21,1761.15C1806.97,1777.01 1748.33,1792.49 1689.94,1807.86C1689.94,1795.09 1689.68,1588.1 1689.68,1572.36C1743.34,1628.66 1795.62,1684.87 1848.87,1741.14Z" style="fill-rule:nonzero;"/>
                        </g>
                        <g transform="matrix(1.66957,0,0,1.66957,-1339.81,-1331.15)">
                            <path d="M2307.94,895.902C2279.4,900.869 1437.84,1052.23 1433.74,1053.08C1433.54,1057.6 1434.54,2068.13 1433.75,2068.15C1419.68,2054.95 1190.73,1835.19 1158.78,1805.54C1150.92,1798.26 1147.3,1790.89 1147.38,1779.77C1147.93,1699.79 1148.08,1613.46 1148.81,1532.49C1151.65,1534.77 1278.95,1647.21 1279.64,1646.92C1279.8,1645.51 1280.33,970.212 1280.33,965.158C1283.24,964.156 2072.66,814.673 2133.35,803.01C2139.41,801.844 2144.76,801.645 2150.51,804.922C2201.65,834.1 2307.94,895.902 2307.94,895.902Z" style="fill-rule:nonzero;"/>
                        </g>
                        <g transform="matrix(1.66957,0,0,1.66957,-1339.81,-1331.15)">
                            <path d="M2067.09,1309.5C2101.46,1301.4 2518.39,1204.69 2591.93,1187.79C2616.55,1182.13 2641.16,1176.42 2665.76,1170.67C2671.72,1169.27 2676.95,1169.2 2682.75,1172.77C2738.57,1207.14 2794.6,1241.16 2850.56,1275.31C2853.1,1276.86 2855.5,1278.63 2857.94,1280.29L2857.94,1924.94C2848.18,1928.56 2608.17,2011.2 2602.8,2011.15C2602.2,2005.15 2602.05,1621.79 2602.05,1615.92C2503.03,1644.15 2405.57,1671.95 2307.75,1699.84C2307.75,1720.34 2311.14,2053.57 2310.89,2063.66C2310.84,2065.76 2066.15,2154.43 2057.54,2157.28C2056.74,2148.47 2056.41,1779.12 2056.1,1773.59C2032.1,1779.31 1942.08,1801.55 1918.19,1805.89C1918.19,1800.16 1918.19,1609.66 1918.19,1518.7C1918.19,1496.49 1918.06,1496.64 1901.78,1481.36C1836.84,1420.37 1690.86,1282.2 1688.91,1279.69C1692.68,1278.65 1863.44,1240.37 1945.56,1221.45C1951.92,1219.99 1956.02,1221.25 1960.71,1225.49C1990.12,1252.08 2019.95,1278.19 2049.23,1304.92C2054.88,1310.08 2059.87,1311.2 2067.09,1309.5Z" style="fill-rule:nonzero;"/>
                        </g>
                    </g>
                </g>
                <g id="Logo1" serif:id="Logo">
                </g>
            </g>
        </g>
    </g>
</svg>
