<?xml version="1.0" encoding="UTF-8" standalone="no"?>
<!DOCTYPE svg PUBLIC "-//W3C//DTD SVG 1.1//EN" "http://www.w3.org/Graphics/SVG/1.1/DTD/svg11.dtd">
<svg width="100%" height="100%" viewBox="0 0 559 306" version="1.1" xmlns="http://www.w3.org/2000/svg" xmlns:xlink="http://www.w3.org/1999/xlink" xml:space="preserve" xmlns:serif="http://www.serif.com/" style="fill-rule:evenodd;clip-rule:evenodd;stroke-linejoin:round;stroke-miterlimit:2;">
    <g transform="matrix(1,0,0,1,-2043.39,-2962.15)">
        <g transform="matrix(0.668311,0,0,0.668311,1334.17,640.458)">
            <g transform="matrix(0.292853,0,0,0.292853,-97.4331,3412.3)">
                <g id="Forma-Curva" serif:id="Forma Curva" transform="matrix(0.854296,0,0,1,3616.06,-2213.71)">
                    <path d="M887.363,2442.3L887.363,2477.36L433.483,2477.36L433.483,2688.66L797.345,2688.66L797.345,2855.43L433.483,2855.43L433.483,3101.8L398.423,3101.8L398.423,2442.3L887.363,2442.3Z" style="fill:white;fill-rule:nonzero;"/>
                    <path d="M1052.24,2699.09C1052.24,2649.81 1064.56,2604.02 1089.19,2561.69C1113.83,2519.37 1147.15,2485.89 1189.16,2461.25C1231.17,2436.61 1277.12,2424.3 1327.03,2424.3C1376.93,2424.3 1422.89,2436.61 1464.9,2461.25C1506.91,2485.89 1540.23,2519.37 1564.87,2561.69C1589.5,2604.02 1601.82,2649.81 1601.82,2699.09L1601.82,2845.01C1601.82,2894.28 1589.5,2940.08 1564.87,2982.41C1540.23,3024.73 1506.91,3058.21 1464.9,3082.85C1422.89,3107.49 1376.93,3119.8 1327.03,3119.8C1277.12,3119.8 1231.17,3107.49 1189.16,3082.85C1147.15,3058.21 1113.83,3024.73 1089.19,2982.41C1064.56,2940.08 1052.24,2894.28 1052.24,2845.01L1052.24,2699.09ZM1224.69,2845.01C1224.69,2875.33 1234.17,2901.23 1253.12,2922.71C1272.07,2944.19 1296.71,2954.93 1327.03,2954.93C1356.72,2954.93 1381.04,2944.19 1399.99,2922.71C1418.94,2901.23 1428.42,2875.33 1428.42,2845.01L1428.42,2698.14C1428.42,2667.19 1418.94,2641.29 1399.99,2620.44C1381.04,2599.59 1356.72,2589.17 1327.03,2589.17C1296.71,2589.17 1272.07,2599.59 1253.12,2620.44C1234.17,2641.29 1224.69,2667.19 1224.69,2698.14L1224.69,2845.01Z" style="fill:white;fill-rule:nonzero;"/>
                    <path d="M2301.12,3101.8L1794.18,3101.8L1794.18,2442.3L2050.96,2442.3C2105.92,2442.3 2150.77,2452.09 2185.52,2471.67C2219.63,2490.62 2246.16,2516.53 2265.11,2549.37C2284.06,2582.22 2293.54,2618.55 2293.54,2658.34C2293.54,2707.62 2278.38,2751.68 2248.06,2790.53C2217.74,2829.38 2179.52,2855.12 2133.4,2867.75L2301.12,3101.8ZM1853.87,2477.36L2111.61,2837.43C2153.93,2828.59 2188.99,2807.43 2216.79,2773.95C2244.58,2740.46 2258.48,2701.93 2258.48,2658.34C2258.48,2623.6 2249.95,2592.01 2232.9,2563.59C2215.84,2535.16 2191.84,2513.37 2160.88,2498.2C2133.09,2484.31 2096.76,2477.36 2051.91,2477.36L1853.87,2477.36ZM1829.24,2500.1L1829.24,2840.27L2072.76,2840.27L1829.24,2500.1ZM1829.24,3066.74L2234.79,3066.74L2096.45,2874.39L2067.07,2875.33L1829.24,2875.33L1829.24,3066.74Z" style="fill:white;fill-rule:nonzero;"/>
                    <path d="M2463.15,2441.35L2501.05,2441.35L2731.31,2848.8L2960.62,2441.35L2995.68,2441.35L2995.68,3100.85L2463.15,3100.85L2463.15,2441.35ZM2498.21,3066.74L2960.62,3066.74L2960.62,2512.42L2747.42,2887.65L2714.26,2887.65L2498.21,2506.73L2498.21,3066.74Z" style="fill:white;fill-rule:nonzero;"/>
                    <path d="M3741.41,3101.8L3119.81,3101.8L3430.61,2428.09L3741.41,3101.8ZM3174.77,3066.74L3686.45,3066.74L3430.61,2511.47L3174.77,3066.74Z" style="fill:white;fill-rule:nonzero;"/>
                </g>
                <g id="Libre-Curva" serif:id="Libre Curva" transform="matrix(0.99455,0,0,1.00376,3370.77,-2223.46)">
                    <path d="M1008.68,3923.27C1025.99,3923.27 1034.64,3931.32 1034.64,3947.42C1034.64,3953.87 1031.13,3959.59 1024.11,3964.6C1017.09,3969.61 1004.6,3972.12 986.638,3972.12L588.873,3972.12L588.873,3212.59L838.701,3212.59L838.701,3936.69L930.304,3936.69C950.878,3936.69 968.595,3934.45 983.454,3929.98C998.313,3925.51 1006.72,3923.27 1008.68,3923.27Z" style="fill:white;fill-rule:nonzero;"/>
                    <rect x="1119.88" y="3212.59" width="249.828" height="759.531" style="fill:white;"/>
                    <path d="M1534.3,3212.59L1744.69,3212.59C1796.78,3212.59 1828.38,3212.76 1839.48,3213.12C1887.81,3215.63 1921.94,3221.8 1941.86,3231.64C1961.78,3241.48 1977.62,3252.49 1989.38,3264.65C2014.53,3291.85 2027.1,3324.77 2027.1,3363.42C2027.1,3401.71 2014.85,3435.35 1990.36,3464.33C1982.85,3473.28 1974.19,3480.97 1964.4,3487.41C2017.63,3498.15 2061.22,3522.66 2095.19,3560.95C2132.09,3602.46 2150.54,3653.1 2150.54,3712.86C2150.54,3773.69 2133.4,3826.11 2099.11,3870.13C2051.1,3930.96 1976.97,3964.24 1876.71,3969.97C1851.24,3971.4 1826.09,3972.12 1801.27,3972.12L1534.3,3972.12L1534.3,3212.59ZM1855.65,3476.68L1880.63,3479.9L1888.47,3479.9C1914.27,3479.9 1936.64,3469.52 1955.58,3448.76C1975.83,3426.58 1985.95,3399.38 1985.95,3367.18C1985.95,3327.81 1970.44,3297.57 1939.41,3276.46C1923.74,3265.72 1908.14,3259.37 1892.63,3257.41C1877.12,3255.44 1864.95,3254.1 1856.14,3253.38C1837.85,3251.95 1813.85,3251.23 1784.13,3251.23L1784.13,3932.39L1838.5,3932.39C1894.02,3932.39 1939.25,3924.88 1974.19,3909.85C2015.99,3894.11 2049.14,3868.7 2073.63,3833.63C2096.82,3800.35 2108.41,3765.46 2108.41,3728.96C2108.41,3692.46 2103.51,3661.68 2093.72,3636.63C2083.92,3611.59 2069.72,3590.29 2051.1,3572.76C2013.22,3536.62 1960.48,3518.54 1892.88,3518.54L1859.08,3521.76C1848.63,3521.76 1840.95,3519.44 1836.05,3514.79C1831.15,3510.14 1828.7,3504.77 1828.7,3498.68C1828.7,3484.01 1837.69,3476.68 1855.65,3476.68Z" style="fill:white;fill-rule:nonzero;"/>
                    <path d="M2600.72,3711.78L2640.89,3715C2698.37,3715 2747.19,3692.99 2787.36,3648.98C2827.53,3604.96 2847.61,3550.21 2847.61,3484.73C2847.61,3398.84 2813.16,3335.15 2744.25,3293.64C2706.37,3270.74 2665.87,3257.49 2622.76,3253.92C2604.48,3252.13 2587.5,3251.23 2571.82,3251.23L2538.51,3251.23C2531.65,3251.23 2525.61,3251.41 2520.39,3251.77L2520.39,3972.12L2270.56,3972.12L2270.56,3212.59L2456.21,3212.59C2503.57,3212.59 2534.43,3212.76 2548.8,3213.12C2563.17,3213.48 2575.98,3213.93 2587.25,3214.46C2598.52,3215 2609.05,3215.63 2618.85,3216.34C2633.22,3217.77 2653.55,3221.17 2679.83,3226.54C2706.12,3231.91 2732.17,3242.11 2757.97,3257.14C2783.77,3272.17 2805.97,3290.78 2824.59,3312.96C2864.76,3360.2 2884.84,3416.38 2884.84,3481.51C2884.84,3545.92 2866.22,3602.82 2829,3652.2C2790.79,3702.66 2739.84,3735.22 2676.16,3749.89C2706.53,3852.95 2745.23,3914.5 2792.26,3934.54C2806.63,3940.62 2820.99,3943.67 2835.36,3943.67L2874.06,3933.47C2886.15,3933.47 2892.19,3940.27 2892.19,3953.87C2892.19,3972.83 2871.94,3982.32 2831.45,3982.32C2802.05,3982.32 2775.11,3973.37 2750.62,3955.48C2712.41,3930.43 2679.92,3881.76 2653.14,3809.47L2638.93,3771.36C2636.64,3765.28 2634.6,3761.52 2632.81,3760.09C2631.01,3758.66 2627.91,3757.94 2623.5,3757.94C2619.09,3757.94 2615.25,3758.3 2611.99,3759.02L2600.23,3759.56C2587.17,3759.56 2578.27,3756.87 2573.53,3751.5C2568.8,3746.14 2566.43,3740.59 2566.43,3734.86C2566.43,3719.48 2577.86,3711.78 2600.72,3711.78Z" style="fill:white;fill-rule:nonzero;"/>
                    <path d="M3435.44,3925.95C3452.1,3925.95 3460.42,3933.11 3460.42,3947.42C3460.42,3953.87 3456.83,3959.59 3449.65,3964.6C3442.46,3969.61 3430.05,3972.12 3412.42,3972.12L2997.51,3972.12L2997.51,3212.59L3383.52,3212.59L3423.68,3210.97C3448.18,3210.97 3460.42,3218.85 3460.42,3234.59C3460.42,3240.68 3458.38,3246.31 3454.3,3251.5C3450.22,3256.69 3445.56,3259.28 3440.34,3259.28C3431.85,3259.28 3422.87,3258.21 3413.4,3256.06C3399.35,3252.84 3380.09,3251.23 3355.59,3251.23L3247.34,3251.23L3247.34,3414.95L3336.49,3414.95C3336.49,3414.95 3356.57,3414.05 3396.74,3412.26C3403.93,3412.26 3410.05,3414.14 3415.11,3417.9C3420.17,3421.66 3422.7,3426.93 3422.7,3433.74C3422.7,3448.76 3413.56,3456.28 3395.27,3456.28L3374.21,3455.74C3363.43,3454.67 3354.45,3454.13 3347.27,3454.13L3247.34,3454.13L3247.34,3932.93L3355.59,3932.93C3379.76,3932.93 3396.91,3931.86 3407.03,3929.71C3419.11,3927.21 3428.58,3925.95 3435.44,3925.95Z" style="fill:white;fill-rule:nonzero;"/>
                </g>
            </g>
        </g>
    </g>
</svg>
